<svg viewBox="-72 10 362 200" version="1.1">
              <path d="M 27.2649,49.5345 C 23.220164,49.017769 19.893618,50.574166 17.202165,52.501942 14.201983,51.593167 10.134611,51.246702 8.477816,53.62752 3.4726862,56.186299 0.17465134,61.443535 -4.889502,63.054954 -6.5648079,68.788472 -13.523245,62.233845 -17.131167,65.587807 -19.722365,67.738843 -24.734531,65.425913 -25.432957,69.246238 -33.459181,70.668797 -41.810037,67.47209 -50.057158,67.979895 -56.992017,66.438686 -64.974172,66.627045 -71.30407,70.37193 -78.549652,70.218326 -74.392112,79.045127 -75.476818,83.495181 -75.521834,127.13866 -75.386801,170.96218 -75.544308,214.49317 73.789025,214.49317 223.12236,214.49317 372.45569,214.49317 372.45569,179.66317 372.45569,144.83317 372.45569,110.00317 365.04073,107.97513 355.41557,108.52794 348.43105,105.40859 341.97749,104.07856 339.05305,102.57304 333.93806,99.63958 325.72446,95.557552 316.87002,93.891858 307.57524,94.292581 299.69673,92.320042 290.62099,93.260968 282.29793,92.041264 280.68613,87.633594 274.67386,84.960858 270.47828,84.302318 264.18392,89.310599 255.86397,81.749362 248.10552,82.895204 242.36401,83.32391 236.51929,82.23943 231.36127,79.658962 226.40456,76.015495 216.8736,82.111968 213.77257,77.68874 211.70081,73.974998 214.28429,64.519704 207.44063,65.728537 204.65071,65.81547 201.02554,64.870932 197.45029,63.054994 190.79906,62.648717 182.59328,61.631636 177.04758,65.728459 171.45685,68.329565 164.84839,67.444314 160.30313,64.884265 154.28121,66.004036 148.04235,71.069338 141.44825,72.904589 133.69209,79.711938 124.05313,70.539038 115.13563,70.512553 108.1168,70.347772 108.38652,62.380463 102.89398,60.944385 99.565809,58.54463 95.053812,57.523418 92.059262,54.19028 86.354908,51.169839 80.236368,52.213012 74.189317,53.76826 70.266695,54.868886 67.745999,51.920995 64.339699,53.064617 58.329507,54.506046 53.805348,57.40701 47.067739,56.673196 41.97959,59.319958 37.82016,53.233139 32.82142,52.360446 30.944405,51.119998 28.909057,51.108319 27.2649,49.5345 Z M 189.39805,62.610232 188.94472,62.587919 189.39805,62.610232 Z M 241.77405,82.754432 241.91477,82.754432 241.77405,82.754432 Z"></path>
            </svg>